<svg xmlns="http://www.w3.org/2000/svg" xmlns:xlink="http://www.w3.org/1999/xlink" width="4431" height="1175" viewBox="0 0 4431 1175" fill="none"><path d="M1175.12 587.499L1174.87 620.35L1174.14 646.004L1172.96 669.455L1171.25 691.584L1169.09 712.685L1166.45 733.003L1163.32 752.684L1159.69 771.729L1155.63 790.284L1151.08 808.301L1146.03 825.877L1140.55 842.963L1134.57 859.658L1128.11 875.912L1121.26 891.725L1113.91 907.147L1106.08 922.177L1097.85 936.816L1089.14 951.014L1079.98 964.82L1070.38 978.186L1060.4 991.16L1049.92 1003.74L1039.05 1015.88L1027.74 1027.63L1015.99 1038.94L1003.84 1049.81L991.259 1060.29L978.284 1070.28L964.917 1079.87L951.11 1089.03L936.91 1097.74L922.27 1105.97L907.239 1113.8L891.815 1121.14L876 1128L859.744 1134.46L843.048 1140.43L825.96 1145.92L808.382 1150.96L790.364 1155.51L771.806 1159.58L752.76 1163.2L733.077 1166.33L712.757 1168.98L691.654 1171.13L669.522 1172.84L646.069 1174.02L620.412 1174.75L587.558 1175L554.704 1174.75L529.047 1174.02L505.594 1172.84L483.462 1171.13L462.359 1168.98L442.039 1166.33L422.356 1163.2L403.31 1159.58L384.753 1155.51L366.734 1150.96L349.156 1145.92L332.068 1140.43L315.372 1134.46L299.116 1128L283.301 1121.14L267.878 1113.8L252.846 1105.97L238.206 1097.74L224.007 1089.03L210.199 1079.87L196.832 1070.28L183.857 1060.29L171.273 1049.81L159.13 1038.94L147.379 1027.63L136.069 1015.88L125.199 1003.74L114.721 991.16L104.732 978.186L95.1354 964.82L85.9793 951.014L77.2639 936.816L69.0381 922.177L61.204 907.147L53.8595 891.725L47.0046 875.912L40.5415 859.658L34.568 842.963L29.0841 825.877L24.0409 808.301L19.4873 790.284L15.4234 771.729L11.8001 752.684L8.66648 733.003L6.02247 712.685L3.86809 691.584L2.15438 669.455L0.979263 646.004L0.244816 620.35L0 587.499L0.244816 554.648L0.979263 528.994L2.15438 505.543L3.86809 483.414L6.02247 462.313L8.66648 441.995L11.8001 422.314L15.4234 403.269L19.4873 384.714L24.0409 366.697L29.0841 349.121L34.568 332.035L40.5415 315.34L47.0046 299.086L53.8595 283.272L61.204 267.851L69.0381 252.82L77.2639 238.182L85.9793 223.984L95.1354 210.178L104.732 196.812L114.721 183.838L125.199 171.256L136.069 159.114L147.379 147.364L159.13 136.055L171.273 125.186L183.857 114.709L196.832 104.722L210.199 95.1259L224.007 85.9707L238.206 77.2561L252.846 69.0311L267.878 61.1978L283.301 53.8541L299.116 46.9999L315.372 40.5374L332.068 34.5645L349.156 29.0812L366.734 24.0385L384.753 19.4854L403.31 15.4218L422.356 11.7989L442.039 8.66561L462.359 6.02186L483.462 3.8677L505.594 2.15416L529.047 0.979165L554.704 0.244791L587.558 0L620.412 0.244791L646.069 0.979165L669.522 2.15416L691.654 3.8677L712.757 6.02186L733.077 8.66561L752.76 11.7989L771.806 15.4218L790.364 19.4854L808.382 24.0385L825.96 29.0812L843.048 34.5645L859.744 40.5374L876 46.9999L891.815 53.8541L907.239 61.1978L922.27 69.0311L936.91 77.2561L951.11 85.9707L964.917 95.1259L978.284 104.722L991.259 114.709L1003.84 125.186L1015.99 136.055L1027.74 147.364L1039.05 159.114L1049.92 171.256L1060.4 183.838L1070.38 196.812L1079.98 210.178L1089.14 223.984L1097.85 238.182L1106.08 252.82L1113.91 267.851L1121.26 283.272L1128.11 299.086L1134.57 315.34L1140.55 332.035L1146.03 349.121L1151.08 366.697L1155.63 384.714L1159.69 403.269L1163.32 422.314L1166.45 441.995L1169.09 462.313L1171.25 483.414L1172.96 505.543L1174.14 528.994L1174.87 554.648L1175.12 587.499Z"   fill="url(#linear_fill_28_16)" ></path><g filter="url(#filter_28_17)"><path d="M246.223 552.053C246.223 380.821 384.735 241.999 555.598 241.999C726.461 241.999 864.974 380.821 864.974 552.053C864.974 723.286 726.461 862.108 555.598 862.108C384.735 862.108 246.223 723.286 246.223 552.053Z" fill-rule="evenodd"  fill="#FFFFFF" fill-opacity="0.43"></path></g><g filter="url(#filter_28_18)"><path d="M522.958 654.246C522.958 526.89 626.231 423.633 753.594 423.633C880.958 423.633 984.23 526.89 984.23 654.246C984.23 781.603 880.958 884.859 753.594 884.859C626.231 884.859 522.958 781.603 522.958 654.246Z" fill-rule="evenodd"  fill="#FFFFFF" fill-opacity="0.43"></path></g><g filter="url(#filter_28_19)"><path d="M444.8 666.61C528.022 674.103 589.409 747.636 581.913 830.846C574.417 914.057 500.877 975.444 417.656 967.951C334.434 960.445 273.047 886.911 280.543 803.701C288.039 720.49 361.579 659.118 444.8 666.61Z" fill-rule="evenodd"  fill="#FFFFFF" fill-opacity="0.43"></path></g><path     fill="url(#linear_fill_28_20_0_0)"  d="M1933.33 834.519L1864.14 834.519L1795.7 641.255L1589.63 641.255L1521.19 834.519L1452 834.519L1658.82 263L1726.51 263L1933.33 834.519ZM1690.41 357.752L1611.44 579.592L1773.89 579.592L1694.92 357.752L1690.41 357.752Z"></path><path     fill="url(#linear_fill_28_20_1_0)"  d="M2126.61 845.047C2069.45 845.047 2028.84 820.607 2028.84 820.607C1988.23 796.167 1965.67 755.559 1965.67 755.559L2019.06 724.727C2036.36 754.807 2064.56 771.351 2064.56 771.351C2092.77 787.895 2128.87 787.895 2128.87 787.895C2166.47 787.895 2188.28 772.855 2188.28 772.855C2210.09 757.815 2210.09 732.247 2210.09 732.247C2210.09 707.431 2188.28 692.016 2188.28 692.016C2166.47 676.599 2116.08 665.32 2116.08 665.32C2046.14 649.528 2011.92 621.704 2011.92 621.704C1977.7 593.88 1977.7 549.512 1977.7 549.512C1977.7 491.608 2016.81 458.52 2016.81 458.52C2055.91 425.432 2123.6 425.432 2123.6 425.432C2220.62 425.432 2275.52 508.152 2275.52 508.152L2225.88 543.496C2206.33 513.416 2180.01 498 2180.01 498C2153.68 482.584 2122.85 482.584 2122.85 482.584C2086 482.584 2063.81 499.128 2063.81 499.128C2041.63 515.672 2041.63 541.992 2041.63 541.992C2041.63 564.552 2065.69 581.096 2065.69 581.096C2089.76 597.64 2137.89 608.92 2137.89 608.92C2274.02 639 2274.02 722.471 2274.02 722.471C2274.02 779.623 2234.53 812.335 2234.53 812.335C2195.05 845.047 2126.61 845.047 2126.61 845.047Z"></path><path     fill="url(#linear_fill_28_20_2_0)"  d="M2553.03 494.616L2437.97 494.616L2437.97 723.223C2437.97 756.311 2455.27 774.359 2455.27 774.359C2472.56 792.407 2503.4 792.407 2503.4 792.407C2521.45 792.407 2544.01 784.887 2544.01 784.887L2544.01 842.039C2523.7 850.311 2490.61 850.311 2490.61 850.311C2434.96 850.311 2405.25 818.727 2405.25 818.727C2375.55 787.143 2375.55 727.735 2375.55 727.735L2375.55 494.616L2313.12 494.616L2313.12 435.96L2375.55 435.96L2375.55 309.624L2437.97 309.624L2437.97 435.96L2553.03 435.96L2553.03 494.616Z"></path><path     fill="url(#linear_fill_28_20_3_0)"  d="M2620.72 834.519L2620.72 435.96L2683.14 435.96L2683.14 511.912L2686.9 511.912C2711.72 471.304 2750.08 448.368 2750.08 448.368C2788.43 425.432 2835.06 425.432 2835.06 425.432L2840.33 425.432L2840.33 493.112L2833.56 493.112C2787.68 493.112 2753.84 508.152 2753.84 508.152C2720 523.192 2701.57 549.136 2701.57 549.136C2683.14 575.08 2683.14 605.16 2683.14 605.16L2683.14 834.519L2620.72 834.519Z"></path><path     fill="url(#linear_fill_28_20_4_0)"  d="M3011.05 845.047C2953.14 845.047 2918.92 814.591 2918.92 814.591C2884.7 784.135 2884.7 733.751 2884.7 733.751C2884.7 604.408 3081.74 604.408 3081.74 604.408L3138.9 604.408L3138.9 572.072C3138.9 531.464 3114.08 507.024 3114.08 507.024C3089.26 482.584 3048.65 482.584 3048.65 482.584C2998.26 482.584 2947.87 526.2 2947.87 526.2L2911.02 484.088C2971.19 425.432 3051.66 425.432 3051.66 425.432C3120.85 425.432 3161.09 463.032 3161.09 463.032C3201.32 500.632 3201.32 564.552 3201.32 564.552L3201.32 834.519L3138.9 834.519L3138.9 777.367L3134.39 777.367C3117.84 807.447 3083.25 826.247 3083.25 826.247C3048.65 845.047 3011.05 845.047 3011.05 845.047ZM3022.33 787.895C3047.15 787.895 3074.22 776.615 3074.22 776.615C3101.3 765.335 3120.1 741.647 3120.1 741.647C3138.9 717.959 3138.9 682.615 3138.9 682.615L3138.9 661.56L3093.78 661.56C3019.32 661.56 2983.97 678.479 2983.97 678.479C2948.62 695.399 2948.62 729.991 2948.62 729.991C2948.62 756.311 2968.56 772.103 2968.56 772.103C2988.49 787.895 3022.33 787.895 3022.33 787.895Z"></path><path     fill="url(#linear_fill_28_20_5_0)"  d="M3506.66 494.616L3391.6 494.616L3391.6 723.223C3391.6 756.311 3408.89 774.359 3408.89 774.359C3426.19 792.407 3457.03 792.407 3457.03 792.407C3475.08 792.407 3497.64 784.887 3497.64 784.887L3497.64 842.039C3477.33 850.311 3444.24 850.311 3444.24 850.311C3388.59 850.311 3358.88 818.727 3358.88 818.727C3329.17 787.143 3329.17 727.735 3329.17 727.735L3329.17 494.616L3266.75 494.616L3266.75 435.96L3329.17 435.96L3329.17 309.624L3391.6 309.624L3391.6 435.96L3506.66 435.96L3506.66 494.616Z"></path><path     fill="url(#linear_fill_28_20_6_0)"  d="M3742.81 845.047C3685.66 845.047 3643.16 819.103 3643.16 819.103C3600.67 793.159 3577.73 745.407 3577.73 745.407C3554.8 697.656 3554.8 634.488 3554.8 634.488C3554.8 572.072 3577.73 524.696 3577.73 524.696C3600.67 477.32 3643.16 451.752 3643.16 451.752C3685.66 426.184 3742.81 426.184 3742.81 426.184C3784.93 426.184 3825.17 448.744 3825.17 448.744C3865.4 471.304 3889.47 508.904 3889.47 508.904L3840.58 543.496C3822.53 516.424 3795.84 500.632 3795.84 500.632C3769.14 484.84 3738.3 484.84 3738.3 484.84C3684.9 484.84 3651.81 525.824 3651.81 525.824C3618.72 566.808 3618.72 634.488 3618.72 634.488C3618.72 702.919 3651.44 744.655 3651.44 744.655C3684.15 786.391 3737.55 786.391 3737.55 786.391C3768.38 786.391 3795.84 770.599 3795.84 770.599C3823.29 754.807 3840.58 727.735 3840.58 727.735L3889.47 762.327C3865.4 799.927 3825.17 822.487 3825.17 822.487C3784.93 845.047 3742.81 845.047 3742.81 845.047Z"></path><path     fill="url(#linear_fill_28_20_7_0)"  d="M3974.45 834.519L3974.45 263L4036.87 263L4036.87 492.36L4040.64 492.36C4058.68 462.28 4093.66 443.856 4093.66 443.856C4128.63 425.432 4163.98 425.432 4163.98 425.432C4230.16 425.432 4267.76 466.416 4267.76 466.416C4305.36 507.4 4305.36 581.848 4305.36 581.848L4305.36 834.519L4242.94 834.519L4242.94 590.872C4242.94 542.744 4215.87 512.664 4215.87 512.664C4188.79 482.584 4148.18 482.584 4148.18 482.584C4098.54 482.584 4067.71 514.544 4067.71 514.544C4036.87 546.504 4036.87 598.392 4036.87 598.392L4036.87 834.519L3974.45 834.519Z"></path><defs><linearGradient id="linear_fill_28_16" x1="45.74725341796875" y1="288.179931640625" x2="1384.8390502929688" y2="1101.901123046875" gradientUnits="userSpaceOnUse"><stop offset="0" stop-color="#80D9FF"  /><stop offset="0.6038" stop-color="#54C3FF"  /><stop offset="1" stop-color="#85C8FF"  /></linearGradient><filter id="filter_28_17" x="242.2230224609375" y="239.999267578125" width="626.7505493164062" height="628.1083374023438" filterUnits="userSpaceOnUse" color-interpolation-filters="sRGB"><feFlood flood-opacity="0" result="feFloodId_28_17"/><feColorMatrix in="SourceAlpha" type="matrix" values="0 0 0 0 0 0 0 0 0 0 0 0 0 0 0 0 0 0 127 0" result="hardAlpha_28_17"/><feOffset dx="0" dy="2"/><feGaussianBlur stdDeviation="2"/><feComposite in2="hardAlpha_28_17" operator="out"/><feColorMatrix type="matrix" values="0 0 0 0 1 0 0 0 0 1 0 0 0 0 1 0 0 0 0.05 0"/><feBlend mode="normal" in2="feFloodId_28_17" result="dropShadow_1_28_17"/><feBlend mode="normal" in="SourceGraphic" in2="dropShadow_1_28_17" result="shape_28_17"/></filter><filter id="filter_28_18" x="518.9584350585938" y="421.63330078125" width="469.27191162109375" height="469.2261962890625" filterUnits="userSpaceOnUse" color-interpolation-filters="sRGB"><feFlood flood-opacity="0" result="feFloodId_28_18"/><feColorMatrix in="SourceAlpha" type="matrix" values="0 0 0 0 0 0 0 0 0 0 0 0 0 0 0 0 0 0 127 0" result="hardAlpha_28_18"/><feOffset dx="0" dy="2"/><feGaussianBlur stdDeviation="2"/><feComposite in2="hardAlpha_28_18" operator="out"/><feColorMatrix type="matrix" values="0 0 0 0 1 0 0 0 0 1 0 0 0 0 1 0 0 0 0.05 0"/><feBlend mode="normal" in2="feFloodId_28_18" result="dropShadow_1_28_18"/><feBlend mode="normal" in="SourceGraphic" in2="dropShadow_1_28_18" result="shape_28_18"/></filter><filter id="filter_28_19" x="269.04681396484375" y="657.117919921875" width="324.3623352050781" height="324.32562255859375" filterUnits="userSpaceOnUse" color-interpolation-filters="sRGB"><feFlood flood-opacity="0" result="feFloodId_28_19"/><feColorMatrix in="SourceAlpha" type="matrix" values="0 0 0 0 0 0 0 0 0 0 0 0 0 0 0 0 0 0 127 0" result="hardAlpha_28_19"/><feOffset dx="0" dy="2"/><feGaussianBlur stdDeviation="2"/><feComposite in2="hardAlpha_28_19" operator="out"/><feColorMatrix type="matrix" values="0 0 0 0 1 0 0 0 0 1 0 0 0 0 1 0 0 0 0.05 0"/><feBlend mode="normal" in2="feFloodId_28_19" result="dropShadow_1_28_19"/><feBlend mode="normal" in="SourceGraphic" in2="dropShadow_1_28_19" result="shape_28_19"/></filter><linearGradient id="linear_fill_28_20_0_0" x1="1452" y1="719.09423828125" x2="4224.015380859375" y2="263" gradientUnits="userSpaceOnUse"><stop offset="0" stop-color="#36CDFF"  /><stop offset="0.3681" stop-color="#A1D9FF"  /><stop offset="1" stop-color="#2BB5FF"  /></linearGradient><linearGradient id="linear_fill_28_20_1_0" x1="1452" y1="719.09423828125" x2="4224.015380859375" y2="263" gradientUnits="userSpaceOnUse"><stop offset="0" stop-color="#36CDFF"  /><stop offset="0.3681" stop-color="#A1D9FF"  /><stop offset="1" stop-color="#2BB5FF"  /></linearGradient><linearGradient id="linear_fill_28_20_2_0" x1="1452" y1="719.09423828125" x2="4224.015380859375" y2="263" gradientUnits="userSpaceOnUse"><stop offset="0" stop-color="#36CDFF"  /><stop offset="0.3681" stop-color="#A1D9FF"  /><stop offset="1" stop-color="#2BB5FF"  /></linearGradient><linearGradient id="linear_fill_28_20_3_0" x1="1452" y1="719.09423828125" x2="4224.015380859375" y2="263" gradientUnits="userSpaceOnUse"><stop offset="0" stop-color="#36CDFF"  /><stop offset="0.3681" stop-color="#A1D9FF"  /><stop offset="1" stop-color="#2BB5FF"  /></linearGradient><linearGradient id="linear_fill_28_20_4_0" x1="1452" y1="719.09423828125" x2="4224.015380859375" y2="263" gradientUnits="userSpaceOnUse"><stop offset="0" stop-color="#36CDFF"  /><stop offset="0.3681" stop-color="#A1D9FF"  /><stop offset="1" stop-color="#2BB5FF"  /></linearGradient><linearGradient id="linear_fill_28_20_5_0" x1="1452" y1="719.09423828125" x2="4224.015380859375" y2="263" gradientUnits="userSpaceOnUse"><stop offset="0" stop-color="#36CDFF"  /><stop offset="0.3681" stop-color="#A1D9FF"  /><stop offset="1" stop-color="#2BB5FF"  /></linearGradient><linearGradient id="linear_fill_28_20_6_0" x1="1452" y1="719.09423828125" x2="4224.015380859375" y2="263" gradientUnits="userSpaceOnUse"><stop offset="0" stop-color="#36CDFF"  /><stop offset="0.3681" stop-color="#A1D9FF"  /><stop offset="1" stop-color="#2BB5FF"  /></linearGradient><linearGradient id="linear_fill_28_20_7_0" x1="1452" y1="719.09423828125" x2="4224.015380859375" y2="263" gradientUnits="userSpaceOnUse"><stop offset="0" stop-color="#36CDFF"  /><stop offset="0.3681" stop-color="#A1D9FF"  /><stop offset="1" stop-color="#2BB5FF"  /></linearGradient></defs></svg>