<svg xmlns="http://www.w3.org/2000/svg" xmlns:xlink="http://www.w3.org/1999/xlink" width="96"
  height="124" viewBox="0 0 96 124" fill="none">
  <g clip-path="url(#clip-path-EkdwTdQOGOCa4S3_An-OP)">
    <path fill="#111111"
      d="M30.4995 37.999C28.9996 37.999 16.9995 37.999 15.4995 37.999C13.9996 37.999 13.4996 40.999 12.4995 40.999C12.4995 40.999 4.00004 40.999 2.99951 40.999C2.50003 40.999 1.99951 41.5 1.99951 41.999C1.99951 43 1.99951 46.999 1.99951 46.999L43.9995 46.999C43.9995 46.999 43.9995 41.999 43.9995 41.999C43.9995 41.5 43.5 40.999 42.9995 40.999C42.9995 40.999 33.4995 40.999 33.4995 40.999C32.4995 40.999 31.9995 37.999 30.4995 37.999Z"></path>
    <path fill-rule="evenodd" fill="rgba(255, 255, 255, 0.5)"
      d="M12.4995 40.999C13.4996 40.999 13.9996 37.999 15.4995 37.999L30.4995 37.999C31.9995 37.999 32.4995 40.999 33.4995 40.999C33.4995 40.999 42.9995 40.999 42.9995 40.999C43.5 40.999 43.9995 41.5 43.9995 41.999L43.9995 42.6317L43.9995 44.999L43.9995 46.999L1.99951 46.999L1.99951 41.999C1.99951 41.5 2.50003 40.999 2.99951 40.999L12.4995 40.999ZM3.99951 44.999L41.9995 44.999L41.9995 44.499L41.9995 42.8084L38.2495 42.999L33.4995 42.999Q32.2478 42.999 31.3329 41.8752Q31.0395 41.5147 30.5839 40.7223Q30.2962 40.2218 30.1366 39.999L15.8624 39.999Q15.7028 40.2218 15.4151 40.7223Q14.9595 41.5147 14.6661 41.8752Q13.7512 42.999 12.4995 42.999L3.99951 42.999L3.99951 44.999ZM42.3451 42.7909Q42.6036 42.999 42.9995 42.999L42.9995 42.7576L42.3451 42.7909Z"></path>
    <path fill="#111111"
      d="M9.29591 50L36.7041 50C39.0255 50 40.8593 51.9695 40.6939 54.285L38.2654 88.285C38.1158 90.3782 36.3741 92 34.2755 92L11.7245 92C9.62592 92 7.88416 90.3782 7.73464 88.285L5.30607 54.285C5.14068 51.9695 6.97454 50 9.29591 50Z"></path>
    <path fill-rule="evenodd" fill="rgba(255, 255, 255, 0.5)"
      d="M36.7041 50L9.29591 50C6.97454 50 5.14068 51.9695 5.30607 54.285L7.73464 88.285C7.88416 90.3782 9.62592 92 11.7245 92L34.2755 92C36.3741 92 38.1158 90.3782 38.2654 88.285L40.6939 54.285C40.8593 51.9695 39.0255 50 36.7041 50ZM7.30099 54.1425C7.21829 52.9848 8.13522 52 9.29591 52L36.7041 52C37.8648 52 38.7817 52.9848 38.699 54.1425L36.2704 88.1425Q36.2144 88.9275 35.6384 89.4637Q35.0625 90 34.2755 90L11.7245 90Q10.9375 90 10.3616 89.4637Q9.78563 88.9275 9.72956 88.1425L7.30099 54.1425Z"></path>
    <circle cx="16" cy="108" r="15" fill="#111111"></circle>
    <path fill-rule="evenodd" fill="rgba(255, 255, 255, 0.5)"
      d="M16 123C24.2843 123 31 116.284 31 108C31 99.7157 24.2843 93 16 93C7.71573 93 1 99.7157 1 108C1 116.284 7.71573 123 16 123ZM16 95C23.1797 95 29 100.82 29 108C29 115.18 23.1797 121 16 121C8.8203 121 3 115.18 3 108C3 100.82 8.8203 95 16 95Z"></path>
    <path fill="#CCCCCC" d="M11 111L21 111"></path>
    <path stroke="rgba(255, 255, 255, 1)" stroke-width="2" stroke-linecap="round" d="M11 111L21 111"></path>
    <path fill="#CCCCCC" d="M11 105L21 105"></path>
    <path stroke="rgba(255, 255, 255, 1)" stroke-width="2" stroke-linecap="round" d="M11 105L21 105"></path>
    <circle cx="48" cy="108" r="15" fill="#111111"></circle>
    <path fill-rule="evenodd" fill="rgba(255, 255, 255, 0.5)"
      d="M48 123C56.2843 123 63 116.284 63 108C63 99.7157 56.2843 93 48 93C39.7157 93 33 99.7157 33 108C33 116.284 39.7157 123 48 123ZM48 95C55.1797 95 61 100.82 61 108C61 115.18 55.1797 121 48 121C40.8203 121 35 115.18 35 108C35 100.82 40.8203 95 48 95Z"></path>
    <path fill="#3D3D3D" d="M48 103L48 113"></path>
    <path stroke="rgba(255, 255, 255, 1)" stroke-width="2" stroke-linecap="round" d="M48 103L48 113"></path>
    <path fill="#3D3D3D" d="M43 108L53 108"></path>
    <path stroke="rgba(255, 255, 255, 1)" stroke-width="2" stroke-linecap="round" d="M43 108L53 108"></path>
    <circle cx="80" cy="108" r="15" fill="#111111"></circle>
    <path fill-rule="evenodd" fill="rgba(255, 255, 255, 0.5)"
      d="M80 123C88.2843 123 95 116.284 95 108C95 99.7157 88.2843 93 80 93C71.7157 93 65 99.7157 65 108C65 116.284 71.7157 123 80 123ZM80 95C87.1797 95 93 100.82 93 108C93 115.18 87.1797 121 80 121C72.8203 121 67 115.18 67 108C67 100.82 72.8203 95 80 95Z"></path>
    <path fill="#888888" d="M75 108L85 108"></path>
    <path stroke="rgba(255, 255, 255, 1)" stroke-width="2" stroke-linecap="round" d="M75 108L85 108"></path>
    <path
      d="M55.0503 27.7027L60.0143 23.1535L60.4227 23L60.8311 23.1676L60.9997 23.5418C61.0047 23.6845 60.9482 23.809 60.8311 23.9161L55.4597 28.8395C55.343 28.9465 55.2059 29 55.0503 29C54.8945 29 54.7587 28.9465 54.6419 28.8395L52.1598 26.5649C52.0528 26.4668 52 26.3446 52 26.1977C52 26.0507 52.0528 25.9238 52.1598 25.8164C52.2766 25.7094 52.4151 25.6559 52.5759 25.6559C52.7367 25.6559 52.8755 25.7094 52.9919 25.8164L55.0503 27.7027Z"
      fill="#000000"></path>
    <path
      d="M1.33243 8.58958C0.88919 8.32709 0.88919 7.67259 1.33243 7.4101L11.9995 1.09278C12.4438 0.829612 13 1.15755 13 1.68251L13 14.3172C13 14.8421 12.4438 15.1704 11.9995 14.9073L1.33243 8.58958Z"
      fill="#FFFFFF"></path>
    <path
      d="M46.6676 8.58958C47.1108 8.32709 47.1108 7.67259 46.6676 7.4101L36.0005 1.09278C35.5562 0.829612 35 1.15755 35 1.68251L35 14.3172C35 14.8421 35.5562 15.1704 36.0005 14.9073L46.6676 8.58958Z"
      fill="#FFFFFF"></path>
    <path
      d="M24.5896 14.6676C24.3271 15.1108 23.6726 15.1108 23.4101 14.6676L17.0928 4.00046C16.8296 3.55622 17.1575 3 17.6825 3L30.3172 3C30.8421 3 31.1704 3.55622 30.9073 4.00046L24.5896 14.6676Z"
      fill="#FFFFFF"></path>
    <path
      d="M1.33243 24.5896C0.88919 24.3271 0.88919 23.6726 1.33243 23.4101L11.9995 17.0928C12.4438 16.8296 13 17.1575 13 17.6825L13 30.3172C13 30.8421 12.4438 31.1704 11.9995 30.9073L1.33243 24.5896Z"
      fill="#FFFFFF"></path>
    <path
      d="M46.6676 24.5896C47.1108 24.3271 47.1108 23.6726 46.6676 23.4101L36.0005 17.0928C35.5562 16.8296 35 17.1575 35 17.6825L35 30.3172C35 30.8421 35.5562 31.1704 36.0005 30.9073L46.6676 24.5896Z"
      fill="#FFFFFF"></path>
    <path
      d="M24.5896 30.6676C24.3271 31.1108 23.6726 31.1108 23.4101 30.6676L17.0928 20.0005C16.8296 19.5562 17.1575 19 17.6825 19L30.3172 19C30.8421 19 31.1704 19.5562 30.9073 20.0005L24.5896 30.6676Z"
      fill="#FFFFFF"></path>
  </g>
  <defs>
    <clipPath id="clip-path-EkdwTdQOGOCa4S3_An-OP">
      <path d="M0 124L96 124L96 0L0 0L0 124Z" fill="white" />
    </clipPath>
  </defs>
</svg>