<svg width="556" height="534" xmlns="http://www.w3.org/2000/svg" xmlns:xlink="http://www.w3.org/1999/xlink" xml:space="preserve" overflow="hidden"><defs><clipPath id="clip0"><rect x="1818" y="576" width="556" height="534"/></clipPath></defs><g clip-path="url(#clip0)" transform="translate(-1818 -576)"><path d="M1822 652.092 1822 974.593C1822 992.373 1836.42 1006.79 1854.21 1006.79L1911.25 1006.79C1915.94 1006.79 1920.4 1008.83 1923.46 1012.39L1957.32 1051.78C1963.44 1058.9 1972.37 1063 1981.76 1063L2113.24 1063C2122.63 1063 2131.56 1058.9 2137.68 1051.78L2171.54 1012.39C2174.6 1008.83 2179.06 1006.79 2183.75 1006.79L2240.79 1006.79C2258.58 1006.79 2273 992.373 2273 974.593L2273 645.193C2273 627.413 2258.58 613 2240.79 613 2240.59 613 2240.4 613.002 2240.21 613.005L1853.64 619.904C1836.07 620.217 1822 634.536 1822 652.092Z" fill="#262626" fill-rule="evenodd"/><path d="M1822.5 612.686 1822.5 950.635C1822.5 968.41 1836.92 982.82 1854.71 982.82L1919.23 982.82C1924.25 982.82 1928.98 985.159 1932.03 989.145L1957.79 1022.85C1963.89 1030.82 1973.36 1035.5 1983.4 1035.5L2112.6 1035.5C2122.64 1035.5 2132.11 1030.82 2138.21 1022.85L2163.97 989.145C2167.02 985.159 2171.75 982.82 2176.77 982.82L2241.29 982.82C2259.08 982.82 2273.5 968.41 2273.5 950.635L2273.5 612.686C2273.5 594.91 2259.08 580.5 2241.29 580.5L1854.71 580.5C1836.92 580.5 1822.5 594.91 1822.5 612.686Z" stroke="#404040" stroke-width="9.16667" stroke-miterlimit="8" fill="#595959" fill-rule="evenodd"/><path d="M2149.92 1056.8 2336.86 870.308C2341.26 865.92 2346.39 863.821 2352.26 864.011 2358.12 864.202 2363.26 866.484 2367.65 870.857 2371.69 875.245 2373.8 880.364 2373.99 886.215 2374.18 892.065 2372.07 897.185 2367.65 901.572L2165.31 1103.42C2160.91 1107.81 2155.78 1110 2149.92 1110 2144.05 1110 2138.92 1107.81 2134.52 1103.42L2041.05 1010.17C2037.02 1006.15 2035 1001.13 2035 995.101 2035 989.075 2037.02 983.861 2041.05 979.458 2045.45 975.071 2050.67 972.877 2056.73 972.877 2062.79 972.877 2068.01 975.071 2072.39 979.458L2149.92 1056.8Z" fill-rule="evenodd"/></g></svg>