<svg xmlns="http://www.w3.org/2000/svg" xmlns:xlink="http://www.w3.org/1999/xlink" width="128"
    height="128" viewBox="0 0 128 128" fill="none">
    <path
        d="M50.86 80.87L96.2 35.53L99.93 34L103.66 35.67L105.2 39.4C105.246 40.8222 104.73 42.0633 103.66 43.13L54.6 92.2C53.5333 93.2667 52.2819 93.8 50.86 93.8C49.4376 93.8 48.1967 93.2667 47.13 92.2L24.46 69.53C23.4822 68.5522 23 67.3349 23 65.87C23 64.4051 23.4822 63.1402 24.46 62.07C25.5267 61.0033 26.7916 60.47 28.26 60.47C29.7285 60.47 30.9969 61.0033 32.06 62.07L50.86 80.87Z"
        fill="#000000"></path>
</svg>