<svg width="402" height="321" xmlns="http://www.w3.org/2000/svg" xmlns:xlink="http://www.w3.org/1999/xlink" xml:space="preserve" overflow="hidden"><defs><clipPath id="clip0"><rect x="1679" y="722" width="402" height="321"/></clipPath></defs><g clip-path="url(#clip0)" transform="translate(-1679 -722)"><path d="M1719.2 1043C1708.14 1043 1698.68 1039.07 1690.82 1031.22 1682.95 1023.37 1679.01 1013.92 1679 1002.87L1679 762.125C1679 751.091 1682.94 741.648 1690.82 733.796 1698.7 725.946 1708.16 722.013 1719.2 722L1839.8 722 1880 762.125 2040.8 762.125C2051.85 762.125 2061.32 766.057 2069.2 773.922 2077.08 781.786 2081.01 791.229 2081 802.25L2081 1002.87C2081 1013.91 2077.07 1023.36 2069.2 1031.22 2061.34 1039.09 2051.87 1043.01 2040.8 1043Z" fill="#404040" fill-rule="evenodd"/><path d="M1719.2 1043C1708.14 1043 1698.68 1039.75 1690.82 1033.24 1682.95 1026.74 1679.01 1018.9 1679 1009.75L1679 810.25C1679 801.106 1682.94 793.281 1690.82 786.775 1698.7 780.27 1708.16 777.011 1719.2 777L1839.8 777 1880 810.25 2040.8 810.25C2051.85 810.25 2061.32 813.508 2069.2 820.025 2077.08 826.542 2081.01 834.367 2081 843.5L2081 1009.75C2081 1018.89 2077.07 1026.72 2069.2 1033.24 2061.34 1039.76 2051.87 1043.01 2040.8 1043Z" fill="#262626" fill-rule="evenodd"/></g></svg>