<svg width="260" height="265" viewBox="0 0 260 265" fill="currentColor" xmlns="http://www.w3.org/2000/svg" xmlns:xlink="http://www.w3.org/1999/xlink" xml:space="preserve"><defs><clipPath id="clip0"><rect x="2756" y="2046" width="260" height="265"/></clipPath></defs><g clip-path="url(#clip0)" transform="translate(-2756 -2046)"><path d="M2777.01 2046.03C2779.51 2046.2 2782.05 2047.07 2784.37 2048.77L2839.76 2090.57C2852.58 2083.74 2868.4 2080.74 2885.84 2080.74 2903.32 2080.74 2919.42 2083.74 2932.24 2090.57L2987.63 2048.77C2996.63 2041.94 3009.45 2048.5 3009.45 2059.98L3007.27 2163.78C3013 2176.35 3016 2191.37 3016 2209.13 3016 2280.98 2957.59 2311 2885.84 2311 2814.11 2311 2756 2280.98 2756 2209.13 2756 2191.37 2758.97 2176.35 2764.73 2163.78 2764 2129.18 2763.27 2094.58 2762.55 2059.98 2762.34 2051.37 2769.5 2045.53 2777.01 2046.03ZM2825.77 2138.99C2814.86 2138.99 2806.01 2147.85 2806.01 2158.77 2806.01 2169.7 2814.86 2178.55 2825.77 2178.55 2836.68 2178.55 2845.52 2169.7 2845.52 2158.77 2845.52 2147.85 2836.68 2138.99 2825.77 2138.99ZM2949.64 2138.99C2938.73 2138.99 2929.89 2147.85 2929.89 2158.77 2929.89 2169.7 2938.73 2178.55 2949.64 2178.55 2960.55 2178.55 2969.4 2169.7 2969.4 2158.77 2969.4 2147.85 2960.55 2138.99 2949.64 2138.99ZM2886.93 2177.71C2865.95 2177.71 2849.04 2177.71 2849.04 2188.63 2849.04 2197.4 2860.5 2210.76 2876.57 2214.86L2876.57 2230.16C2876.57 2239.17 2869.5 2246.28 2860.74 2246.28 2855.86 2246.28 2851.47 2244.36 2848.46 2240.84 2844.92 2236.44 2838.37 2235.89 2834 2239.45 2829.67 2243.27 2829.37 2249.85 2832.94 2253.92 2839.76 2262.12 2849.83 2266.76 2860.74 2266.76 2870.84 2266.76 2880.11 2262.42 2886.93 2255.59 2893.51 2262.42 2902.76 2266.76 2913.13 2266.76 2923.79 2266.76 2933.86 2262.12 2940.68 2253.92 2944.53 2249.85 2943.95 2243.27 2939.62 2239.45 2935.52 2235.89 2928.95 2236.44 2925.16 2240.84 2922.13 2244.36 2917.76 2246.28 2913.13 2246.28 2904.39 2246.28 2897.03 2239.17 2897.03 2230.16L2897.03 2215.13C2912.85 2210.76 2924.86 2197.4 2924.86 2188.63 2924.86 2177.71 2907.67 2177.71 2886.93 2177.71Z" fill-rule="evenodd"/></g></svg>