<svg xmlns="http://www.w3.org/2000/svg" xmlns:xlink="http://www.w3.org/1999/xlink" width="165" height="168" viewBox="0 0 165 168" fill="none"><path d="M48.67 113.2L48.67 64.4L6 39.73L6 82.53C6 84.4857 6.46489 86.27 7.4 87.87C8.33511 89.47 9.64467 90.7524 11.33 91.73L48.67 113.2ZM80.53 39.87L96.27 30.67L59.33 9.47C57.6411 8.49222 55.8667 8 54 8C52.1333 8 50.3589 8.49222 48.67 9.47L38.13 15.47L80.53 39.87ZM54 55.2L69.87 46.13L27.6 21.6L11.6 30.8L54 55.2Z"   fill="currentcolor" ></path><path d="M67.1616 58.0131C68.1327 58.0792 69.1194 58.4173 70.0207 59.0781L91.5375 75.3247C96.5176 72.67 102.663 71.504 109.438 71.504C116.228 71.504 122.482 72.67 127.462 75.3247L148.98 59.0781C152.476 56.4235 157.456 58.9732 157.456 63.4351L156.609 103.78C158.835 108.665 160 114.503 160 121.406C160 149.332 137.31 161 109.438 161C81.5736 161 59 149.332 59 121.406C59 114.503 60.1537 108.665 62.3913 103.78C62.1077 90.3313 61.8241 76.8833 61.5444 63.4351C61.4629 60.0887 64.2442 57.8188 67.1616 58.0131ZM86.103 94.1441C81.8649 94.1441 78.427 97.5882 78.427 101.832C78.427 106.081 81.8649 109.52 86.103 109.52C90.341 109.52 93.7751 106.081 93.7751 101.832C93.7751 97.5882 90.341 94.1441 86.103 94.1441ZM134.222 94.1441C129.984 94.1441 126.55 97.5882 126.55 101.832C126.55 106.081 129.984 109.52 134.222 109.52C138.46 109.52 141.898 106.081 141.898 101.832C141.898 97.5882 138.46 94.1441 134.222 94.1441ZM109.862 109.194C101.712 109.194 95.1425 109.194 95.1425 113.438C95.1425 116.847 99.5942 122.04 105.837 123.633L105.837 129.58C105.837 133.082 103.09 135.845 99.6875 135.845C97.7918 135.845 96.0867 135.099 94.9172 133.731C93.5419 132.021 90.9976 131.807 89.3 133.191C87.6179 134.675 87.5015 137.233 88.8882 138.815C91.5375 142.002 95.4496 143.805 99.6875 143.805C103.611 143.805 107.212 142.118 109.862 139.464C112.418 142.118 116.011 143.805 120.039 143.805C124.18 143.805 128.092 142.002 130.741 138.815C132.237 137.233 132.012 134.675 130.329 133.191C128.737 131.807 126.185 132.021 124.712 133.731C123.535 135.099 121.838 135.845 120.039 135.845C116.644 135.845 113.785 133.082 113.785 129.58L113.785 123.738C119.93 122.04 124.596 116.847 124.596 113.438C124.596 109.194 117.918 109.194 109.862 109.194Z" fill-rule="evenodd"  fill="currentcolor" ></path></svg>